<?xml version="1.0" encoding="UTF-8" standalone="no"?>
<!DOCTYPE svg PUBLIC "-//W3C//DTD SVG 1.1//EN" "http://www.w3.org/Graphics/SVG/1.1/DTD/svg11.dtd">
<svg width="100%" height="100%" viewBox="0 0 1808 471" version="1.1" xmlns="http://www.w3.org/2000/svg" xmlns:xlink="http://www.w3.org/1999/xlink" xml:space="preserve" xmlns:serif="http://www.serif.com/" style="fill-rule:evenodd;clip-rule:evenodd;stroke-linejoin:round;stroke-miterlimit:2;">
    <g transform="matrix(1,0,0,1,-514.17,-687.667)">
        <g>
            <g transform="matrix(1,0,0,1,-250.605,-288.643)">
                <path d="M934.575,1192.61L934.575,977.51L891.975,977.81L891.975,1068.11C855.675,1019.51 813.075,988.91 764.775,976.31L764.775,1192.61L807.375,1192.61L807.375,1043.21C825.075,1055.51 840.075,1070.21 852.975,1086.71C879.075,1120.31 891.975,1155.71 891.975,1192.61L934.575,1192.61ZM870.975,1192.61L870.975,1150.31L828.375,1150.31L828.375,1192.61L870.975,1192.61ZM870.975,1252.61L870.975,1210.31L828.375,1210.31L828.375,1252.61L870.975,1252.61Z" style="fill:rgb(224,224,224);fill-rule:nonzero;"/>
                <path d="M1066.58,1021.01L1066.58,978.71L1023.98,978.71L1023.98,1021.01L1066.58,1021.01ZM1066.58,1081.01L1066.58,1038.71L1023.98,1038.71L1023.98,1081.01L1066.58,1081.01ZM1135.88,977.51L1093.28,977.51L1092.98,999.41C1092.08,1052.81 1081.58,1103.21 1061.17,1150.31L1029.38,1150.31C1008.68,1103.21 998.175,1052.81 997.575,999.41L997.275,977.51L954.675,977.51L955.275,1000.01C956.775,1067.21 970.875,1127.51 996.975,1180.91L1002.68,1192.61L1087.88,1192.61L1093.88,1180.91C1105.88,1157.51 1115.78,1128.71 1123.58,1094.81C1130.48,1064.51 1134.38,1033.01 1135.28,1000.01L1135.88,977.51ZM1135.88,1252.61L1135.88,1210.31L1093.28,1210.31L1093.28,1252.61L1135.88,1252.61ZM997.275,1252.61L997.275,1210.31L954.675,1210.31L954.675,1252.61L997.275,1252.61Z" style="fill:rgb(224,224,224);fill-rule:nonzero;"/>
                <path d="M1300.28,1021.01L1300.28,978.71L1257.67,978.71L1257.67,1021.01L1300.28,1021.01ZM1300.28,1192.61L1300.28,1150.31L1198.58,1150.31L1198.58,977.51L1155.98,977.51L1155.98,1192.61L1300.28,1192.61ZM1300.28,1252.61L1300.28,1210.31L1257.67,1210.31L1257.67,1252.61L1300.28,1252.61Z" style="fill:rgb(224,224,224);fill-rule:nonzero;"/>
                <path d="M1464.98,1021.01L1464.98,978.71L1422.38,978.71L1422.38,1021.01L1464.98,1021.01ZM1464.98,1192.61L1464.98,1150.31L1363.28,1150.31L1363.28,977.51L1320.67,977.51L1320.67,1192.61L1464.98,1192.61ZM1464.98,1252.61L1464.98,1210.31L1422.38,1210.31L1422.38,1252.61L1464.98,1252.61Z" style="fill:rgb(224,224,224);fill-rule:nonzero;"/>
                <path d="M1652.78,977.51L1485.38,977.51L1485.38,1192.61L1527.98,1192.61L1527.98,1143.11C1560.38,1127.21 1587.67,1104.71 1609.58,1075.61C1631.78,1046.51 1646.17,1013.81 1652.78,977.51ZM1652.78,1192.61L1652.78,1150.31L1610.48,1150.31L1610.48,1192.61L1652.78,1192.61ZM1652.78,1252.61L1652.78,1210.31L1610.48,1210.31L1610.48,1252.61L1652.78,1252.61ZM1594.28,1020.11C1579.28,1050.41 1557.08,1075.31 1527.98,1094.51L1527.98,1020.11L1594.28,1020.11Z" style="fill:rgb(224,224,224);fill-rule:nonzero;"/>
                <path d="M1715.48,1192.61L1715.48,977.51L1673.17,977.51L1673.17,1192.61L1715.48,1192.61ZM1715.48,1252.61L1715.48,1210.31L1673.17,1210.31L1673.17,1252.61L1715.48,1252.61Z" style="fill:rgb(224,224,224);fill-rule:nonzero;"/>
                <path d="M1905.38,1192.61L1905.38,977.51L1862.78,977.81L1862.78,1068.11C1826.48,1019.51 1783.88,988.91 1735.58,976.31L1735.58,1192.61L1778.17,1192.61L1778.17,1043.21C1795.88,1055.51 1810.88,1070.21 1823.78,1086.71C1849.88,1120.31 1862.78,1155.71 1862.78,1192.61L1905.38,1192.61ZM1841.78,1192.61L1841.78,1150.31L1799.17,1150.31L1799.17,1192.61L1841.78,1192.61ZM1841.78,1252.61L1841.78,1210.31L1799.17,1210.31L1799.17,1252.61L1841.78,1252.61Z" style="fill:rgb(224,224,224);fill-rule:nonzero;"/>
                <path d="M2082.38,1020.11L2082.38,977.51L1925.78,977.51L1925.78,1020.11L1982.78,1020.11L1982.78,1192.61L2025.38,1192.61L2025.38,1020.11L2082.38,1020.11ZM2081.78,1192.61L2081.78,1150.31L2039.17,1150.31L2039.17,1192.61L2081.78,1192.61ZM2081.78,1252.61L2081.78,1210.31L2039.17,1210.31L2039.17,1252.61L2081.78,1252.61ZM1967.78,1192.61L1967.78,1150.31L1925.17,1150.31L1925.17,1192.61L1967.78,1192.61ZM1967.78,1252.61L1967.78,1210.31L1925.17,1210.31L1925.17,1252.61L1967.78,1252.61Z" style="fill:rgb(224,224,224);fill-rule:nonzero;"/>
                <path d="M2272.58,1192.61L2272.58,1148.21C2235.68,1135.91 2205.38,1114.01 2181.68,1082.51L2259.68,1082.51L2259.68,1040.21L2157.68,1040.21C2154.97,1033.91 2152.88,1027.31 2151.07,1020.11L2265.38,1020.11L2265.38,977.51L2101.57,977.51C2103.07,1028.81 2120.18,1074.11 2152.28,1114.01C2183.78,1153.31 2223.97,1179.71 2272.58,1192.61ZM2144.18,1192.61L2144.18,1150.31L2101.57,1150.31L2101.57,1192.61L2144.18,1192.61ZM2144.18,1252.61L2144.18,1210.31L2101.57,1210.31L2101.57,1252.61L2144.18,1252.61Z" style="fill:rgb(224,224,224);fill-rule:nonzero;"/>
                <path d="M2464.28,1192.61L2406.97,1086.41C2433.68,1054.61 2451.08,1018.31 2458.88,977.51L2290.58,977.51L2290.58,1192.61L2333.18,1192.61L2333.18,1144.31C2348.18,1136.81 2362.28,1127.81 2375.47,1117.31L2416.28,1192.61L2464.28,1192.61ZM2387.47,1192.61L2387.47,1150.31L2345.18,1150.31L2345.18,1192.61L2387.47,1192.61ZM2387.47,1252.61L2387.47,1210.31L2345.18,1210.31L2345.18,1252.61L2387.47,1252.61ZM2399.47,1021.01C2384.18,1051.91 2362.28,1076.51 2333.18,1095.41L2333.18,1021.01L2399.47,1021.01Z" style="fill:rgb(224,224,224);fill-rule:nonzero;"/>
            </g>
            <g transform="matrix(1,0,0,1,76.0765,-190.191)">
                <path d="M1424.57,1318.8C1424.17,1318.1 1423.47,1317.4 1422.47,1316.7L1420.97,1315.8C1419.27,1314.7 1417.97,1312.65 1417.07,1309.65C1416.67,1308.85 1416.32,1307.3 1416.02,1305L1411.07,1271.7C1410.07,1264.3 1407.62,1259.05 1403.72,1255.95C1401.22,1254.05 1398.02,1253.1 1394.12,1253.1C1390.82,1254 1388.32,1254.6 1386.62,1254.9L1380.32,1255.35C1379.12,1255.35 1377.62,1255.25 1375.82,1255.05C1374.52,1254.95 1373.12,1254.65 1371.62,1254.15C1370.12,1253.65 1368.47,1252.9 1366.67,1251.9C1364.87,1252.8 1363.72,1253.95 1363.22,1255.35C1362.62,1256.65 1362.32,1258.35 1362.32,1260.45C1362.92,1263.45 1363.57,1265.85 1364.27,1267.65C1366.67,1272.35 1370.52,1274.7 1375.82,1274.7L1380.17,1274.1C1382.07,1273.2 1383.17,1272.05 1383.47,1270.65C1382.07,1270.15 1381.22,1269.55 1380.92,1268.85C1380.62,1268.05 1380.47,1267.35 1380.47,1266.75C1380.47,1265.15 1380.72,1264.1 1381.22,1263.6C1381.72,1263.3 1382.77,1263.15 1384.37,1263.15C1386.57,1263.15 1388.37,1263.55 1389.77,1264.35C1391.17,1265.25 1392.02,1267.1 1392.32,1269.9L1396.22,1291.2L1396.67,1293.6L1396.82,1296.6C1396.82,1299.5 1396.17,1302.05 1394.87,1304.25C1393.07,1307.05 1390.32,1308.75 1386.62,1309.35C1383.02,1309.35 1380.47,1307.65 1378.97,1304.25C1378.47,1303.15 1378.07,1301.45 1377.77,1299.15C1377.77,1295.65 1378.77,1293.3 1380.77,1292.1C1381.47,1291.7 1382.42,1291.4 1383.62,1291.2C1385.02,1291.3 1386.47,1291.7 1387.97,1292.4C1389.17,1293 1389.92,1294.2 1390.22,1296L1391.27,1295.4C1392.77,1294.2 1393.52,1292.8 1393.52,1291.2C1393.52,1287.2 1392.37,1283.9 1390.07,1281.3C1387.77,1278.8 1384.52,1277.55 1380.32,1277.55C1375.82,1277.55 1371.92,1278.6 1368.62,1280.7C1362.72,1284.5 1359.77,1290.85 1359.77,1299.75C1360.47,1303.25 1360.97,1305.55 1361.27,1306.65C1361.77,1308.35 1362.27,1309.7 1362.77,1310.7C1366.57,1317.9 1372.92,1321.5 1381.82,1321.5C1389.02,1321.5 1394.37,1319.15 1397.87,1314.45L1399.52,1311.3C1399.52,1313.2 1399.82,1315.15 1400.42,1317.15C1401.02,1319.15 1402.22,1320.15 1404.02,1320.15L1421.57,1320.15C1423.57,1320.15 1424.57,1319.7 1424.57,1318.8Z" style="fill:rgb(224,224,224);fill-rule:nonzero;"/>
                <path d="M1493.27,1318.8C1493.07,1318.2 1492.72,1317.65 1492.22,1317.15L1491.32,1316.4C1488.22,1315.4 1485.77,1313.1 1483.97,1309.5L1483.07,1307.25C1481.87,1300.45 1478.92,1295 1474.22,1290.9C1472.72,1289.5 1470.47,1288.15 1467.47,1286.85C1471.37,1284.85 1473.82,1283.4 1474.82,1282.5C1479.82,1278.4 1482.87,1273.65 1483.97,1268.25C1483.97,1261.85 1482.17,1257.45 1478.57,1255.05C1476.67,1253.75 1474.22,1253.1 1471.22,1253.1C1466.52,1253.1 1462.17,1254.35 1458.17,1256.85C1454.07,1259.45 1450.92,1262.95 1448.72,1267.35L1448.72,1221.75L1448.42,1218.9C1448.32,1218.6 1447.92,1218.35 1447.22,1218.15L1445.42,1218.75L1444.52,1219.35C1441.02,1222.85 1436.57,1225.15 1431.17,1226.25C1430.37,1226.45 1429.17,1226.55 1427.57,1226.55L1426.52,1227C1425.02,1227.7 1424.27,1228.35 1424.27,1228.95C1424.27,1229.85 1425.37,1230.75 1427.57,1231.65L1429.52,1233C1430.82,1234.3 1431.47,1236.05 1431.47,1238.25L1431.47,1302.6C1431.47,1303.9 1431.37,1305.25 1431.17,1306.65C1430.97,1307.95 1430.67,1309.25 1430.27,1310.55C1429.37,1313.25 1427.82,1315.3 1425.62,1316.7L1424.87,1317.6L1424.27,1319.25C1424.57,1319.85 1425.87,1320.15 1428.17,1320.15L1452.17,1320.15C1454.67,1320.15 1456.07,1319.85 1456.37,1319.25L1455.62,1317.6L1454.87,1316.7C1452.77,1315.8 1451.27,1314.1 1450.37,1311.6C1449.37,1309.2 1448.87,1306.15 1448.87,1302.45L1448.87,1290C1448.87,1280.5 1451.42,1273.65 1456.52,1269.45C1457.12,1268.85 1458.22,1268.2 1459.82,1267.5L1463.42,1268.4C1465.82,1269.6 1467.02,1271.4 1467.02,1273.8L1466.72,1275.9C1465.72,1278.2 1464.67,1280.1 1463.57,1281.6C1460.57,1285.6 1456.97,1288.05 1452.77,1288.95C1451.97,1289.45 1451.57,1290.05 1451.57,1290.75L1452.32,1292.25C1454.82,1293.15 1456.67,1294.05 1457.87,1294.95C1461.67,1297.85 1463.97,1301.85 1464.77,1306.95L1465.67,1313.25C1466.87,1317.55 1468.77,1319.85 1471.37,1320.15L1488.17,1320.15L1492.22,1319.85C1492.82,1319.55 1493.17,1319.2 1493.27,1318.8Z" style="fill:rgb(224,224,224);fill-rule:nonzero;"/>
                <path d="M1561.82,1318.8C1561.42,1318.1 1560.72,1317.4 1559.72,1316.7L1558.22,1315.8C1556.52,1314.7 1555.22,1312.65 1554.32,1309.65C1553.92,1308.85 1553.57,1307.3 1553.27,1305L1548.32,1271.7C1547.32,1264.3 1544.87,1259.05 1540.97,1255.95C1538.47,1254.05 1535.27,1253.1 1531.37,1253.1C1528.07,1254 1525.57,1254.6 1523.87,1254.9L1517.57,1255.35C1516.37,1255.35 1514.87,1255.25 1513.07,1255.05C1511.77,1254.95 1510.37,1254.65 1508.87,1254.15C1507.37,1253.65 1505.72,1252.9 1503.92,1251.9C1502.12,1252.8 1500.97,1253.95 1500.47,1255.35C1499.87,1256.65 1499.57,1258.35 1499.57,1260.45C1500.17,1263.45 1500.82,1265.85 1501.52,1267.65C1503.92,1272.35 1507.77,1274.7 1513.07,1274.7L1517.42,1274.1C1519.32,1273.2 1520.42,1272.05 1520.72,1270.65C1519.32,1270.15 1518.47,1269.55 1518.17,1268.85C1517.87,1268.05 1517.72,1267.35 1517.72,1266.75C1517.72,1265.15 1517.97,1264.1 1518.47,1263.6C1518.97,1263.3 1520.02,1263.15 1521.62,1263.15C1523.82,1263.15 1525.62,1263.55 1527.02,1264.35C1528.42,1265.25 1529.27,1267.1 1529.57,1269.9L1533.47,1291.2L1533.92,1293.6L1534.07,1296.6C1534.07,1299.5 1533.42,1302.05 1532.12,1304.25C1530.32,1307.05 1527.57,1308.75 1523.87,1309.35C1520.27,1309.35 1517.72,1307.65 1516.22,1304.25C1515.72,1303.15 1515.32,1301.45 1515.02,1299.15C1515.02,1295.65 1516.02,1293.3 1518.02,1292.1C1518.72,1291.7 1519.67,1291.4 1520.87,1291.2C1522.27,1291.3 1523.72,1291.7 1525.22,1292.4C1526.42,1293 1527.17,1294.2 1527.47,1296L1528.52,1295.4C1530.02,1294.2 1530.77,1292.8 1530.77,1291.2C1530.77,1287.2 1529.62,1283.9 1527.32,1281.3C1525.02,1278.8 1521.77,1277.55 1517.57,1277.55C1513.07,1277.55 1509.17,1278.6 1505.87,1280.7C1499.97,1284.5 1497.02,1290.85 1497.02,1299.75C1497.72,1303.25 1498.22,1305.55 1498.52,1306.65C1499.02,1308.35 1499.52,1309.7 1500.02,1310.7C1503.82,1317.9 1510.17,1321.5 1519.07,1321.5C1526.27,1321.5 1531.62,1319.15 1535.12,1314.45L1536.77,1311.3C1536.77,1313.2 1537.07,1315.15 1537.67,1317.15C1538.27,1319.15 1539.47,1320.15 1541.27,1320.15L1558.82,1320.15C1560.82,1320.15 1561.82,1319.7 1561.82,1318.8Z" style="fill:rgb(224,224,224);fill-rule:nonzero;"/>
                <path d="M1672.67,1282.35C1672.67,1270.65 1668.62,1262.25 1660.52,1257.15C1657.82,1255.35 1653.77,1254 1648.37,1253.1C1644.37,1253.1 1640.57,1254.45 1636.97,1257.15C1635.87,1257.85 1634.47,1259.2 1632.77,1261.2L1632.77,1223.55C1632.77,1222.45 1632.72,1221.55 1632.62,1220.85C1632.52,1220.45 1632.47,1220.1 1632.47,1219.8C1632.47,1219.2 1632.42,1218.85 1632.32,1218.75L1631.12,1217.85C1630.42,1217.85 1629.32,1218.45 1627.82,1219.65C1625.32,1221.85 1621.57,1223.7 1616.57,1225.2L1609.97,1227L1606.37,1227C1606.47,1228 1607.57,1229.15 1609.67,1230.45L1612.52,1232.85C1614.42,1235.05 1615.37,1237.8 1615.37,1241.1L1615.37,1298.55C1615.37,1298.65 1615.27,1299 1615.07,1299.6C1614.87,1300.7 1614.72,1301.45 1614.62,1301.85C1614.22,1303.65 1613.42,1304.9 1612.22,1305.6C1613.92,1309.3 1615.72,1311.95 1617.62,1313.55C1623.22,1318.85 1630.97,1321.5 1640.87,1321.5C1649.77,1321.5 1657.32,1318.1 1663.52,1311.3C1669.62,1304.6 1672.67,1294.95 1672.67,1282.35ZM1653.62,1290.15C1653.62,1297.05 1652.57,1302.4 1650.47,1306.2C1648.17,1310 1645.57,1311.9 1642.67,1311.9C1640.67,1311.9 1638.97,1311.5 1637.57,1310.7C1636.17,1309.9 1635.02,1308.6 1634.12,1306.8C1633.22,1305.1 1632.77,1302.55 1632.77,1299.15L1632.92,1277.7C1632.92,1273.3 1634.12,1270.3 1636.52,1268.7C1637.82,1267.7 1639.72,1267.2 1642.22,1267.2C1645.02,1268.7 1646.92,1269.95 1647.92,1270.95C1651.72,1275.25 1653.62,1281.65 1653.62,1290.15Z" style="fill:rgb(224,224,224);fill-rule:nonzero;"/>
                <path d="M1743.62,1318.8C1743.22,1318.1 1742.52,1317.4 1741.52,1316.7L1740.02,1315.8C1738.32,1314.7 1737.02,1312.65 1736.12,1309.65C1735.72,1308.85 1735.37,1307.3 1735.07,1305L1730.12,1271.7C1729.12,1264.3 1726.67,1259.05 1722.77,1255.95C1720.27,1254.05 1717.07,1253.1 1713.17,1253.1C1709.87,1254 1707.37,1254.6 1705.67,1254.9L1699.37,1255.35C1698.17,1255.35 1696.67,1255.25 1694.87,1255.05C1693.57,1254.95 1692.17,1254.65 1690.67,1254.15C1689.17,1253.65 1687.52,1252.9 1685.72,1251.9C1683.92,1252.8 1682.77,1253.95 1682.27,1255.35C1681.67,1256.65 1681.37,1258.35 1681.37,1260.45C1681.97,1263.45 1682.62,1265.85 1683.32,1267.65C1685.72,1272.35 1689.57,1274.7 1694.87,1274.7L1699.22,1274.1C1701.12,1273.2 1702.22,1272.05 1702.52,1270.65C1701.12,1270.15 1700.27,1269.55 1699.97,1268.85C1699.67,1268.05 1699.52,1267.35 1699.52,1266.75C1699.52,1265.15 1699.77,1264.1 1700.27,1263.6C1700.77,1263.3 1701.82,1263.15 1703.42,1263.15C1705.62,1263.15 1707.42,1263.55 1708.82,1264.35C1710.22,1265.25 1711.07,1267.1 1711.37,1269.9L1715.27,1291.2L1715.72,1293.6L1715.87,1296.6C1715.87,1299.5 1715.22,1302.05 1713.92,1304.25C1712.12,1307.05 1709.37,1308.75 1705.67,1309.35C1702.07,1309.35 1699.52,1307.65 1698.02,1304.25C1697.52,1303.15 1697.12,1301.45 1696.82,1299.15C1696.82,1295.65 1697.82,1293.3 1699.82,1292.1C1700.52,1291.7 1701.47,1291.4 1702.67,1291.2C1704.07,1291.3 1705.52,1291.7 1707.02,1292.4C1708.22,1293 1708.97,1294.2 1709.27,1296L1710.32,1295.4C1711.82,1294.2 1712.57,1292.8 1712.57,1291.2C1712.57,1287.2 1711.42,1283.9 1709.12,1281.3C1706.82,1278.8 1703.57,1277.55 1699.37,1277.55C1694.87,1277.55 1690.97,1278.6 1687.67,1280.7C1681.77,1284.5 1678.82,1290.85 1678.82,1299.75C1679.52,1303.25 1680.02,1305.55 1680.32,1306.65C1680.82,1308.35 1681.32,1309.7 1681.82,1310.7C1685.62,1317.9 1691.97,1321.5 1700.87,1321.5C1708.07,1321.5 1713.42,1319.15 1716.92,1314.45L1718.57,1311.3C1718.57,1313.2 1718.87,1315.15 1719.47,1317.15C1720.07,1319.15 1721.27,1320.15 1723.07,1320.15L1740.62,1320.15C1742.62,1320.15 1743.62,1319.7 1743.62,1318.8Z" style="fill:rgb(224,224,224);fill-rule:nonzero;"/>
                <path d="M1812.32,1318.8C1812.12,1318.2 1811.77,1317.65 1811.27,1317.15L1810.37,1316.4C1807.27,1315.4 1804.82,1313.1 1803.02,1309.5L1802.12,1307.25C1800.92,1300.45 1797.97,1295 1793.27,1290.9C1791.77,1289.5 1789.52,1288.15 1786.52,1286.85C1790.42,1284.85 1792.87,1283.4 1793.87,1282.5C1798.87,1278.4 1801.92,1273.65 1803.02,1268.25C1803.02,1261.85 1801.22,1257.45 1797.62,1255.05C1795.72,1253.75 1793.27,1253.1 1790.27,1253.1C1785.57,1253.1 1781.22,1254.35 1777.22,1256.85C1773.12,1259.45 1769.97,1262.95 1767.77,1267.35L1767.77,1221.75L1767.47,1218.9C1767.37,1218.6 1766.97,1218.35 1766.27,1218.15L1764.47,1218.75L1763.57,1219.35C1760.07,1222.85 1755.62,1225.15 1750.22,1226.25C1749.42,1226.45 1748.22,1226.55 1746.62,1226.55L1745.57,1227C1744.07,1227.7 1743.32,1228.35 1743.32,1228.95C1743.32,1229.85 1744.42,1230.75 1746.62,1231.65L1748.57,1233C1749.87,1234.3 1750.52,1236.05 1750.52,1238.25L1750.52,1302.6C1750.52,1303.9 1750.42,1305.25 1750.22,1306.65C1750.02,1307.95 1749.72,1309.25 1749.32,1310.55C1748.42,1313.25 1746.87,1315.3 1744.67,1316.7L1743.92,1317.6L1743.32,1319.25C1743.62,1319.85 1744.92,1320.15 1747.22,1320.15L1771.22,1320.15C1773.72,1320.15 1775.12,1319.85 1775.42,1319.25L1774.67,1317.6L1773.92,1316.7C1771.82,1315.8 1770.32,1314.1 1769.42,1311.6C1768.42,1309.2 1767.92,1306.15 1767.92,1302.45L1767.92,1290C1767.92,1280.5 1770.47,1273.65 1775.57,1269.45C1776.17,1268.85 1777.27,1268.2 1778.87,1267.5L1782.47,1268.4C1784.87,1269.6 1786.07,1271.4 1786.07,1273.8L1785.77,1275.9C1784.77,1278.2 1783.72,1280.1 1782.62,1281.6C1779.62,1285.6 1776.02,1288.05 1771.82,1288.95C1771.02,1289.45 1770.62,1290.05 1770.62,1290.75L1771.37,1292.25C1773.87,1293.15 1775.72,1294.05 1776.92,1294.95C1780.72,1297.85 1783.02,1301.85 1783.82,1306.95L1784.72,1313.25C1785.92,1317.55 1787.82,1319.85 1790.42,1320.15L1807.22,1320.15L1811.27,1319.85C1811.87,1319.55 1812.22,1319.2 1812.32,1318.8Z" style="fill:rgb(224,224,224);fill-rule:nonzero;"/>
                <path d="M1880.87,1318.8C1880.47,1318.1 1879.77,1317.4 1878.77,1316.7L1877.27,1315.8C1875.57,1314.7 1874.27,1312.65 1873.37,1309.65C1872.97,1308.85 1872.62,1307.3 1872.32,1305L1867.37,1271.7C1866.37,1264.3 1863.92,1259.05 1860.02,1255.95C1857.52,1254.05 1854.32,1253.1 1850.42,1253.1C1847.12,1254 1844.62,1254.6 1842.92,1254.9L1836.62,1255.35C1835.42,1255.35 1833.92,1255.25 1832.12,1255.05C1830.82,1254.95 1829.42,1254.65 1827.92,1254.15C1826.42,1253.65 1824.77,1252.9 1822.97,1251.9C1821.17,1252.8 1820.02,1253.95 1819.52,1255.35C1818.92,1256.65 1818.62,1258.35 1818.62,1260.45C1819.22,1263.45 1819.87,1265.85 1820.57,1267.65C1822.97,1272.35 1826.82,1274.7 1832.12,1274.7L1836.47,1274.1C1838.37,1273.2 1839.47,1272.05 1839.77,1270.65C1838.37,1270.15 1837.52,1269.55 1837.22,1268.85C1836.92,1268.05 1836.77,1267.35 1836.77,1266.75C1836.77,1265.15 1837.02,1264.1 1837.52,1263.6C1838.02,1263.3 1839.07,1263.15 1840.67,1263.15C1842.87,1263.15 1844.67,1263.55 1846.07,1264.35C1847.47,1265.25 1848.32,1267.1 1848.62,1269.9L1852.52,1291.2L1852.97,1293.6L1853.12,1296.6C1853.12,1299.5 1852.47,1302.05 1851.17,1304.25C1849.37,1307.05 1846.62,1308.75 1842.92,1309.35C1839.32,1309.35 1836.77,1307.65 1835.27,1304.25C1834.77,1303.15 1834.37,1301.45 1834.07,1299.15C1834.07,1295.65 1835.07,1293.3 1837.07,1292.1C1837.77,1291.7 1838.72,1291.4 1839.92,1291.2C1841.32,1291.3 1842.77,1291.7 1844.27,1292.4C1845.47,1293 1846.22,1294.2 1846.52,1296L1847.57,1295.4C1849.07,1294.2 1849.82,1292.8 1849.82,1291.2C1849.82,1287.2 1848.67,1283.9 1846.37,1281.3C1844.07,1278.8 1840.82,1277.55 1836.62,1277.55C1832.12,1277.55 1828.22,1278.6 1824.92,1280.7C1819.02,1284.5 1816.07,1290.85 1816.07,1299.75C1816.77,1303.25 1817.27,1305.55 1817.57,1306.65C1818.07,1308.35 1818.57,1309.7 1819.07,1310.7C1822.87,1317.9 1829.22,1321.5 1838.12,1321.5C1845.32,1321.5 1850.67,1319.15 1854.17,1314.45L1855.82,1311.3C1855.82,1313.2 1856.12,1315.15 1856.72,1317.15C1857.32,1319.15 1858.52,1320.15 1860.32,1320.15L1877.87,1320.15C1879.87,1320.15 1880.87,1319.7 1880.87,1318.8Z" style="fill:rgb(224,224,224);fill-rule:nonzero;"/>
                <rect x="1884.47" y="1281" width="31.65" height="8.7" style="fill:rgb(224,224,224);fill-rule:nonzero;"/>
                <path d="M1991.27,1327.35C1991.27,1319.25 1987.52,1313.55 1980.02,1310.25C1975.52,1308.25 1969.62,1307.25 1962.32,1307.25L1958.57,1307.25L1975.52,1300.65L1976.57,1300.05C1977.17,1299.65 1977.62,1299.3 1977.92,1299L1978.82,1298.1L1977.62,1297.6C1977.02,1297.43 1976.22,1297.35 1975.22,1297.35C1974.02,1297.85 1973.02,1298.1 1972.22,1298.1L1969.07,1298.1L1965.32,1297.95C1961.12,1297.95 1957.07,1296.95 1953.17,1294.95C1946.77,1291.35 1943.57,1285.2 1943.57,1276.5C1943.57,1273 1944.07,1270.2 1945.07,1268.1C1946.17,1265.8 1947.77,1263.95 1949.87,1262.55C1952.17,1261.15 1954.82,1260.45 1957.82,1260.45C1960.42,1260.45 1962.52,1261.1 1964.12,1262.4C1966.82,1264.5 1968.17,1268.25 1968.17,1273.65C1968.17,1276.85 1967.42,1279.45 1965.92,1281.45C1964.22,1283.45 1961.92,1284.6 1959.02,1284.9C1957.12,1284.9 1955.32,1284.2 1953.62,1282.8L1952.12,1281L1950.62,1278.9L1950.02,1278.45C1949.52,1278.65 1949.27,1279.15 1949.27,1279.95L1949.27,1282.8C1949.87,1285.6 1950.62,1287.6 1951.52,1288.8C1954.42,1292.7 1959.22,1294.65 1965.92,1294.65L1972.22,1293.3C1973.92,1292.9 1975.27,1292.5 1976.27,1292.1C1983.17,1288.6 1986.62,1283 1986.62,1275.3C1986.62,1268.2 1984.67,1262.8 1980.77,1259.1C1976.67,1255.3 1971.22,1253.4 1964.42,1253.4C1966.22,1252.3 1967.52,1251.25 1968.32,1250.25C1970.82,1247.75 1972.07,1244.75 1972.07,1241.25C1972.07,1238.05 1971.17,1235.65 1969.37,1234.05C1967.37,1232.35 1964.57,1231.5 1960.97,1231.5C1958.37,1232.1 1956.62,1232.65 1955.72,1233.15C1952.22,1235.15 1950.47,1238.35 1950.47,1242.75L1951.52,1245C1951.92,1245.4 1952.67,1245.6 1953.77,1245.6C1954.27,1244.4 1955.32,1243.8 1956.92,1243.8C1958.22,1244.1 1959.02,1244.55 1959.32,1245.15C1959.52,1245.95 1959.62,1246.6 1959.62,1247.1C1959.62,1248.5 1958.62,1249.8 1956.62,1251L1953.77,1252.35C1948.07,1253.25 1943.82,1254.3 1941.02,1255.5C1932.22,1259.7 1927.37,1266.55 1926.47,1276.05C1926.47,1281.85 1927.82,1286.85 1930.52,1291.05C1934.92,1297.75 1942.17,1301.75 1952.27,1303.05L1933.97,1310.55L1932.77,1311.45L1931.87,1312.35C1931.77,1312.45 1931.72,1312.6 1931.72,1312.8C1931.72,1313 1931.67,1313.15 1931.57,1313.25C1931.57,1313.85 1931.87,1314.15 1932.47,1314.15L1937.72,1314.3L1941.62,1313.7C1944.12,1313.4 1945.92,1313.25 1947.02,1313.25L1950.02,1313.25C1958.32,1313.25 1964.27,1314.74 1967.87,1317.72C1970.27,1319.81 1971.47,1322.2 1971.47,1324.88L1971.17,1326.53C1970.07,1331.89 1967.07,1335.67 1962.17,1337.86C1960.57,1338.65 1958.17,1339.25 1954.97,1339.65C1950.57,1339.65 1947.17,1339.2 1944.77,1338.3C1941.27,1336.9 1939.52,1334.6 1939.52,1331.4C1939.72,1329.7 1940.42,1328.5 1941.62,1327.8C1942.92,1327.1 1944.62,1326.75 1946.72,1326.75L1949.27,1326.75C1949.37,1326.75 1949.67,1326.85 1950.17,1327.05C1950.67,1327.15 1951.17,1327.25 1951.67,1327.35C1953.27,1328.05 1954.47,1329.2 1955.27,1330.8L1956.32,1331.55L1957.37,1331.85L1957.82,1331.7L1958.27,1330.8C1958.27,1330.1 1957.97,1329 1957.37,1327.5C1955.67,1323.16 1952.77,1320.1 1948.67,1318.33C1946.37,1317.34 1943.87,1316.85 1941.17,1316.85C1935.87,1316.85 1931.67,1318 1928.57,1320.3C1925.47,1322.7 1923.92,1325.9 1923.92,1329.9C1923.92,1336.1 1926.67,1340.75 1932.17,1343.85C1937.17,1346.75 1944.42,1348.2 1953.92,1348.2C1964.82,1348.2 1973.77,1346.35 1980.77,1342.65C1987.77,1339.05 1991.27,1333.95 1991.27,1327.35Z" style="fill:rgb(224,224,224);fill-rule:nonzero;"/>
                <path d="M2052.17,1288.05C2052.17,1277.05 2049.82,1268.45 2045.12,1262.25C2040.32,1256.15 2034.22,1253.1 2026.82,1253.1C2022.72,1253.1 2019.57,1254.25 2017.37,1256.55C2015.27,1258.95 2014.22,1262.15 2014.22,1266.15C2014.22,1269.55 2014.87,1272.25 2016.17,1274.25C2018.17,1277.45 2021.77,1279.05 2026.97,1279.05L2027.87,1275C2029.07,1272.4 2030.92,1271.1 2033.42,1271.1C2036.02,1271.1 2038.22,1272.3 2040.02,1274.7C2041.72,1277.2 2042.57,1280.5 2042.57,1284.6L2042.42,1287.6C2042.42,1295.4 2039.27,1300.35 2032.97,1302.45C2031.67,1302.95 2030.27,1303.2 2028.77,1303.2C2020.87,1303.2 2015.42,1299.75 2012.42,1292.85C2010.52,1288.75 2009.57,1283.1 2009.57,1275.9C2009.57,1272.3 2010.02,1269 2010.92,1266L2012.27,1262.7L2012.57,1261.8L2012.72,1260.6C2012.72,1260.4 2012.47,1260.05 2011.97,1259.55L2009.27,1261.05C2004.97,1265.45 2002.02,1271 2000.42,1277.7C1999.42,1281.4 1998.92,1285.65 1998.92,1290.45C1999.12,1291.45 1999.32,1292.7 1999.52,1294.2C1999.62,1294.5 1999.67,1294.75 1999.67,1294.95C1999.77,1295.95 1999.92,1297.15 2000.12,1298.55C2001.62,1304.95 2004.17,1309.95 2007.77,1313.55C2013.07,1318.85 2020.02,1321.5 2028.62,1321.5C2036.22,1321.5 2042.07,1318.4 2046.17,1312.2C2050.17,1306.1 2052.17,1298.05 2052.17,1288.05Z" style="fill:rgb(224,224,224);fill-rule:nonzero;"/>
                <path d="M2123.12,1318.65L2122.67,1317.9L2120.27,1316.7C2118.87,1315.8 2117.87,1314.95 2117.27,1314.15C2115.37,1311.65 2114.42,1307.75 2114.42,1302.45L2114.42,1256.7C2114.42,1254.7 2114.17,1253.3 2113.67,1252.5L2112.92,1252.2C2112.32,1252.2 2111.72,1252.5 2111.12,1253.1L2110.37,1253.85C2107.67,1256.95 2104.02,1259.1 2099.42,1260.3C2099.32,1260.3 2099.02,1260.35 2098.52,1260.45C2097.72,1260.65 2097.12,1260.8 2096.72,1260.9C2095.12,1261.1 2093.92,1261.2 2093.12,1261.2C2090.32,1261.2 2088.92,1261.5 2088.92,1262.1C2088.92,1262.8 2089.72,1263.8 2091.32,1265.1L2094.32,1267.35C2096.22,1269.55 2097.17,1272.35 2097.17,1275.75L2097.17,1299.45C2097.17,1301.75 2096.67,1303.7 2095.67,1305.3C2094.17,1307.5 2091.62,1308.6 2088.02,1308.6C2084.52,1308.6 2082.17,1307.45 2080.97,1305.15C2080.17,1303.75 2079.77,1301.85 2079.77,1299.45L2079.77,1255.65C2079.77,1253.65 2079.57,1252.45 2079.17,1252.05L2077.07,1252.8L2076.17,1253.4C2072.37,1257.5 2067.67,1260 2062.07,1260.9C2061.27,1261.1 2060.07,1261.2 2058.47,1261.2C2057.57,1261.2 2056.97,1261.25 2056.67,1261.35C2055.87,1261.55 2055.32,1261.75 2055.02,1261.95L2055.77,1263.6L2056.37,1264.5C2058.77,1266 2060.42,1267.9 2061.32,1270.2C2061.92,1271.8 2062.22,1273.75 2062.22,1276.05L2062.22,1304.25C2062.22,1309.75 2064.02,1314 2067.62,1317C2071.12,1320 2076.02,1321.5 2082.32,1321.5C2084.92,1321.5 2087.32,1321.1 2089.52,1320.3C2092.62,1319 2095.17,1316.85 2097.17,1313.85C2097.17,1316.15 2097.47,1317.75 2098.07,1318.65C2098.47,1319.65 2099.07,1320.15 2099.87,1320.15L2120.27,1320.15L2121.17,1319.85C2121.57,1319.75 2122.22,1319.35 2123.12,1318.65Z" style="fill:rgb(224,224,224);fill-rule:nonzero;"/>
                <path d="M2176.22,1264.05C2176.22,1263.05 2175.97,1261.95 2175.47,1260.75C2175.07,1259.95 2174.67,1259.2 2174.27,1258.5L2172.47,1256.55C2169.97,1254.55 2167.12,1253.4 2163.92,1253.1C2160.12,1253.1 2156.77,1255 2153.87,1258.8L2150.72,1264.35L2150.72,1258.65L2150.42,1253.4L2149.22,1252.35L2148.92,1252.35C2148.72,1252.35 2148.57,1252.4 2148.47,1252.5C2148.07,1252.7 2147.72,1252.91 2147.42,1253.11L2146.52,1253.88C2144.02,1257.03 2140.87,1259.16 2137.07,1260.28C2134.97,1260.99 2132.12,1261.35 2128.52,1261.35C2126.42,1261.35 2125.37,1261.7 2125.37,1262.4L2125.67,1263L2127.02,1264.5L2127.77,1265.1C2129.07,1265.7 2130.02,1266.3 2130.62,1266.9C2132.42,1268.8 2133.32,1271.3 2133.32,1274.4L2133.32,1306.65C2133.32,1310.95 2131.82,1314 2128.82,1315.8L2126.87,1316.55L2125.97,1317.3L2125.07,1318.8C2125.37,1319.6 2126.17,1320.15 2127.47,1320.45L2157.77,1320.45C2159.57,1319.95 2160.47,1319.15 2160.47,1318.05C2160.27,1317.65 2159.87,1317.15 2159.27,1316.55L2158.37,1315.95L2154.62,1314.3C2152.12,1312.5 2150.87,1310.15 2150.87,1307.25L2150.87,1276.05C2150.87,1274.15 2151.37,1272.65 2152.37,1271.55C2152.97,1270.95 2153.97,1270.5 2155.37,1270.2C2156.87,1270.3 2157.97,1270.8 2158.67,1271.7C2159.57,1272.6 2160.02,1274.55 2160.02,1277.55C2160.02,1280.55 2160.37,1282.95 2161.07,1284.75C2161.97,1286.45 2163.42,1287.3 2165.42,1287.3L2166.62,1286.85C2167.32,1286.45 2167.67,1285.85 2167.67,1285.05C2167.67,1284.75 2167.42,1284 2166.92,1282.8C2166.32,1281.9 2166.02,1280.95 2166.02,1279.95C2166.02,1277.95 2167.42,1275.55 2170.22,1272.75L2174.27,1269.45C2175.27,1268.15 2175.82,1267.2 2175.92,1266.6C2176.12,1265.6 2176.22,1264.75 2176.22,1264.05Z" style="fill:rgb(224,224,224);fill-rule:nonzero;"/>
                <path d="M2245.67,1319.1C2245.57,1318.6 2244.77,1317.85 2243.27,1316.85C2240.87,1315.54 2239.37,1313.69 2238.77,1311.29C2238.17,1309.58 2237.77,1308.03 2237.57,1306.63C2237.47,1306.03 2237.42,1304.68 2237.42,1302.57L2237.42,1222.96C2237.22,1221.96 2237.12,1220.86 2237.12,1219.65C2237.02,1218.45 2236.82,1217.7 2236.52,1217.4C2235.22,1217.5 2234.02,1218.35 2232.92,1219.95C2231.62,1220.95 2230.47,1221.7 2229.47,1222.2C2228.07,1222.9 2226.92,1223.45 2226.02,1223.85C2224.12,1224.75 2222.22,1225.45 2220.32,1225.95C2218.52,1226.45 2216.82,1226.7 2215.22,1226.7C2214.22,1226.7 2213.12,1226.85 2211.92,1227.15C2211.82,1227.15 2211.57,1227.2 2211.17,1227.3C2211.17,1227.3 2211.07,1227.35 2210.87,1227.45C2210.97,1228.15 2212.12,1229.15 2214.32,1230.45C2216.22,1231.25 2217.52,1232.25 2218.22,1233.45C2219.22,1234.75 2219.72,1236.75 2219.72,1239.45L2219.72,1260C2218.02,1258.1 2216.77,1256.9 2215.97,1256.4C2212.57,1254 2208.92,1252.8 2205.02,1252.8L2201.27,1253.1C2194.17,1253.1 2188.52,1255.9 2184.32,1261.5C2180.02,1267.1 2177.87,1275.35 2177.87,1286.25L2178.02,1290C2178.02,1297.9 2179.27,1304.45 2181.77,1309.65C2185.67,1317.45 2192.27,1321.35 2201.57,1321.35C2207.37,1321.35 2212.12,1319.55 2215.82,1315.95C2216.92,1315.05 2218.22,1313.3 2219.72,1310.7L2220.32,1316.1C2220.82,1317.7 2221.57,1319.05 2222.57,1320.15L2244.32,1320.15C2245.22,1319.95 2245.67,1319.6 2245.67,1319.1ZM2220.17,1283.4C2220.17,1289.6 2219.42,1294.8 2217.92,1299C2215.82,1304.8 2212.37,1307.7 2207.57,1307.7C2204.47,1307.7 2201.87,1306.75 2199.77,1304.85C2196.67,1301.85 2195.12,1296.9 2195.12,1290L2194.97,1285.5C2194.97,1278.6 2195.97,1273.25 2197.97,1269.45C2199.97,1265.65 2202.52,1263.75 2205.62,1263.75L2208.02,1263.45C2210.02,1263.45 2211.67,1263.95 2212.97,1264.95C2214.27,1265.95 2214.92,1267.7 2214.92,1270.2L2214.17,1272.9C2213.07,1274.6 2211.32,1275.45 2208.92,1275.45L2205.62,1274.85C2204.62,1274.85 2204.12,1275.15 2204.12,1275.75C2204.12,1276.45 2204.72,1277.5 2205.92,1278.9L2207.57,1280.7C2208.77,1281.2 2209.82,1281.45 2210.72,1281.45C2212.82,1281.45 2215.02,1280.6 2217.32,1278.9L2219.87,1276.5L2220.17,1283.4Z" style="fill:rgb(224,224,224);fill-rule:nonzero;"/>
            </g>
        </g>
    </g>
</svg>
